<svg width="61" height="29" viewBox="0 0 61 29" fill="none" xmlns="http://www.w3.org/2000/svg">
<path d="M41.9198 28.4H18.4798C15.0798 28.4 12.2998 25.62 12.2998 22.22V6.18C12.2998 2.78 15.0798 0 18.4798 0H41.9198C45.3198 0 48.0998 2.78 48.0998 6.18V22.22C48.0998 25.62 45.3198 28.4 41.9198 28.4ZM18.4798 2.6C16.4998 2.6 14.8998 4.2 14.8998 6.18V22.22C14.8998 24.2 16.4998 25.8 18.4798 25.8H41.9198C43.8998 25.8 45.4998 24.2 45.4998 22.22V6.18C45.4998 4.2 43.8998 2.6 41.9198 2.6H18.4798Z" fill="#FE7000"/>
<path d="M42.7 8.8999H17.5V11.4999H42.7V8.8999Z" fill="#7ADEC9"/>
<path d="M42.8001 16.7H17.6001V19.3H42.8001V16.7Z" fill="#7ADEC9"/>
<path d="M10.6 23.2401C6.1 22.6801 2.6 18.8401 2.6 14.2001C2.6 9.56006 6.1 5.72006 10.6 5.16006V2.56006C4.66 3.10006 0 8.12006 0 14.2001C0 20.2801 4.66 25.3001 10.6 25.8401V23.2401Z" fill="#FE7000"/>
<path d="M49.7998 23.2401C54.2998 22.7001 57.7998 18.8601 57.7998 14.2001C57.7998 9.54006 54.2998 5.72006 49.7998 5.16006V2.56006C55.7398 3.12006 60.3998 8.12006 60.3998 14.2001C60.3998 20.2801 55.7398 25.3001 49.7998 25.8401V23.2401Z" fill="#FE7000"/>
</svg>
