<svg width="61" height="51" viewBox="0 0 61 51" fill="none" xmlns="http://www.w3.org/2000/svg">
<path d="M27.7999 19.88C22.3199 19.88 17.8599 15.42 17.8599 9.94C17.8599 4.46 22.3199 0 27.7999 0C33.2799 0 37.7399 4.46 37.7399 9.94C37.7399 15.42 33.2799 19.88 27.7999 19.88ZM27.7999 2.74C23.8199 2.74 20.5999 5.98 20.5999 9.94C20.5999 13.9 23.8399 17.14 27.7999 17.14C31.7799 17.14 34.9999 13.9 34.9999 9.94C34.9999 5.98 31.7799 2.74 27.7999 2.74Z" fill="#FE7000"/>
<path d="M14.02 5.02003V2.28003C8.54 2.28003 4.08 6.74003 4.08 12.22C4.08 15.7 5.86 18.76 8.58 20.52C3.54 22.68 0 27.66 0 33.46H2.74C2.74 27.24 7.8 22.18 14.02 22.18V19.44C10.04 19.44 6.82 16.2 6.82 12.24C6.82 8.26003 10.06 5.02003 14.02 5.02003Z" fill="#FE7000"/>
<path d="M47.6802 50.7C40.7802 50.7 35.1802 45.1 35.1802 38.2C35.1802 31.3 40.7802 25.7 47.6802 25.7C54.5802 25.7 60.1802 31.3 60.1802 38.2C60.1802 45.1 54.5802 50.7 47.6802 50.7ZM47.6802 28.3C42.2202 28.3 37.7802 32.74 37.7802 38.2C37.7802 43.66 42.2202 48.1 47.6802 48.1C53.1402 48.1 57.5802 43.66 57.5802 38.2C57.5802 32.74 53.1402 28.3 47.6802 28.3Z" fill="#7ADEC9"/>
<path d="M53.9003 34L52.0603 32.18L47.9603 36.28L43.6403 31.96L41.8003 33.8L46.1203 38.12L41.8003 42.44L43.6403 44.28L47.9603 39.96L52.0603 44.06L53.9003 42.24L49.8003 38.12L53.9003 34Z" fill="#7ADEC9"/>
<path d="M37.5201 27.1C34.6801 25.44 31.3601 24.48 27.8401 24.48C17.2201 24.48 8.58008 33.12 8.58008 43.74V46.18H11.3201V43.74C11.3201 34.62 18.7401 27.22 27.8401 27.22C30.6601 27.22 33.3001 27.92 35.6201 29.18C36.1801 28.4 36.8001 27.72 37.5201 27.1Z" fill="#FE7000"/>
<path d="M48.52 23.2C49.5 23.2 50.46 23.32 51.38 23.54C50.12 22.28 48.6 21.24 46.94 20.54C49.64 18.76 51.44 15.7 51.44 12.24C51.44 6.76005 46.98 2.30005 41.5 2.30005V5.04005C45.48 5.04005 48.7 8.28005 48.7 12.24C48.7 16.22 45.46 19.44 41.5 19.44V22.18C43.32 22.18 45.02 22.62 46.54 23.38C47.18 23.26 47.84 23.2 48.52 23.2Z" fill="#FE7000"/>
</svg>
