<svg width="53" height="57" viewBox="0 0 53 57" fill="none" xmlns="http://www.w3.org/2000/svg">
<path d="M40.8601 20.5199C37.6601 20.5199 35.0601 17.9199 35.0601 14.7199C35.0601 11.5199 37.6601 8.91992 40.8601 8.91992C44.0601 8.91992 46.6601 11.5199 46.6601 14.7199C46.6601 17.9199 44.0601 20.5199 40.8601 20.5199ZM40.8601 11.5199C39.1001 11.5199 37.6601 12.9599 37.6601 14.7199C37.6601 16.4799 39.1001 17.9199 40.8601 17.9199C42.6201 17.9199 44.0601 16.4799 44.0601 14.7199C44.0601 12.9599 42.6201 11.5199 40.8601 11.5199Z" fill="#FE7000"/>
<path d="M19.3001 19.4C13.9601 19.4 9.6001 15.04 9.6001 9.7C9.6001 4.36 13.9601 0 19.3001 0C24.6401 0 29.0001 4.36 29.0001 9.7C29.0001 15.04 24.6401 19.4 19.3001 19.4ZM19.3001 2.6C15.3801 2.6 12.2001 5.78 12.2001 9.7C12.2001 13.62 15.3801 16.8 19.3001 16.8C23.2201 16.8 26.4001 13.62 26.4001 9.7C26.4001 5.78 23.2201 2.6 19.3001 2.6Z" fill="#FE7000"/>
<path d="M2.74 45.6C2.66 44.92 2.6 44.22 2.6 43.5C2.6 34.3 10.1 26.8 19.3 26.8C28.5 26.8 36 34.3 36 43.5C36 44.22 35.96 44.92 35.86 45.6H38.48C38.56 44.92 38.6 44.2 38.6 43.5C38.6 32.86 29.94 24.2 19.3 24.2C8.66 24.2 0 32.86 0 43.5C0 44.2 0.04 44.92 0.12 45.6H2.74Z" fill="#FE7000"/>
<path d="M33.9399 28.1799C35.4399 25.9599 37.9799 24.4999 40.8599 24.4999C45.4599 24.4999 49.2199 28.2399 49.2199 32.8599C49.2199 33.1799 49.1999 33.4999 49.1599 33.8199H51.7799C51.7999 33.4999 51.8199 33.1799 51.8199 32.8599C51.8199 26.8199 46.8999 21.8999 40.8599 21.8999C37.1399 21.8999 33.8599 23.7599 31.8799 26.5999" fill="#FE7000"/>
<path d="M44.6002 49.7H31.7002V52.3H44.6002V49.7Z" fill="#7ADEC9"/>
<path d="M29.1002 53.1801L26.9202 50.9801L29.1002 48.7801V45.1201L23.2402 50.9801L29.1002 56.8601V53.1801Z" fill="#7ADEC9"/>
<path d="M47.1001 53.1801L49.3001 50.9801L47.1001 48.7801V45.1201L52.9801 50.9801L47.1001 56.8601V53.1801Z" fill="#7ADEC9"/>
</svg>
