<svg width="38" height="50" viewBox="0 0 38 50" fill="none" xmlns="http://www.w3.org/2000/svg">
<path d="M19.3466 49.1799H4.04661C3.58661 49.1799 3.12661 49.0599 2.72661 48.8399C0.946613 47.8399 -0.0933869 45.9599 0.00661309 43.9199L0.486613 34.3999C0.626613 31.4399 1.34661 28.5599 2.60661 25.8799L6.04661 18.4999C6.48661 17.5399 7.12661 16.6999 7.92661 15.9999C8.32661 15.6399 8.84661 15.4399 9.38661 15.4199C10.4666 15.3999 13.2266 15.4199 14.7866 15.4399C15.7066 15.4599 16.6066 15.7999 17.2866 16.3999C17.9866 17.0199 18.4066 17.9199 18.4266 18.8599L18.5466 24.9199C18.5666 25.6799 18.8066 26.3999 19.2666 26.9999L20.8466 29.0999C21.8866 30.4799 22.4866 32.1399 22.5866 33.8799L23.1466 43.9799C23.2466 45.6799 22.5266 47.3599 21.2066 48.4599C20.6866 48.9399 20.0266 49.1799 19.3466 49.1799ZM9.46661 17.8199C8.92661 18.2999 8.50661 18.8599 8.20661 19.5199L4.76661 26.8999C3.64661 29.2999 3.00661 31.8799 2.86661 34.5399L2.38661 44.0399C2.32661 45.1599 2.90661 46.2199 3.88661 46.7799C3.92661 46.7999 3.98661 46.8199 4.04661 46.8199H19.3466C19.4666 46.8199 19.5666 46.7799 19.6666 46.6999C20.4066 46.0799 20.8066 45.1199 20.7666 44.1599L20.2066 34.0599C20.1266 32.7999 19.7066 31.5999 18.9466 30.5799L17.3666 28.4799C16.6066 27.4799 16.2066 26.2599 16.1666 24.9999L16.0466 18.9399C16.0466 18.6599 15.9266 18.3999 15.7066 18.2199C15.4466 17.9799 15.1066 17.8599 14.7466 17.8599C13.2466 17.8199 10.5266 17.7999 9.46661 17.8199Z" fill="#FE7000"/>
<path d="M16.4066 11.72H8.2666V14.1H16.4066V11.72Z" fill="#FE7000"/>
<path d="M24.0667 1.63989H6.9267C5.2467 1.63989 3.8667 3.01989 3.8667 4.69989V6.03989C3.8667 7.65989 5.1867 8.97989 6.8067 8.97989H7.6667C7.9867 8.97989 8.2667 9.23989 8.2667 9.57989V10.4399H10.6467V9.57989C10.6467 7.93989 9.3067 6.59989 7.6667 6.59989H6.8067C6.5067 6.59989 6.2667 6.35989 6.2667 6.05989V4.71989C6.2667 4.33989 6.5667 4.03989 6.9467 4.03989H24.0867C24.2667 4.03989 24.4067 4.17989 24.4067 4.35989C24.4067 4.67989 24.1467 4.95989 23.8067 4.95989H19.8467C19.8267 4.95989 17.2067 5.01989 16.2867 5.73989C14.8267 6.87989 13.9867 8.59989 13.9467 10.4399H16.3267C16.3667 9.33989 16.8467 8.33989 17.7067 7.63989C18.0467 7.49989 19.2867 7.31989 19.8467 7.31989H23.7867C25.4267 7.31989 26.7667 5.97989 26.7667 4.33989C26.7667 2.85989 25.5667 1.63989 24.0667 1.63989Z" fill="#FE7000"/>
<path d="M24.4264 14.8801L22.3464 14.2801C20.9264 13.8801 19.7264 12.9601 18.9464 11.7201L18.0864 10.3401L20.1064 9.08008L20.9664 10.4601C21.4264 11.2001 22.1664 11.7601 23.0064 12.0001L25.0864 12.6001L24.4264 14.8801Z" fill="#FE7000"/>
<path d="M29.7866 4.93994C30.3389 4.93994 30.7866 4.49223 30.7866 3.93994C30.7866 3.38766 30.3389 2.93994 29.7866 2.93994C29.2343 2.93994 28.7866 3.38766 28.7866 3.93994C28.7866 4.49223 29.2343 4.93994 29.7866 4.93994Z" fill="#7ADEC9"/>
<path d="M36.2065 4.93994C36.7588 4.93994 37.2065 4.49223 37.2065 3.93994C37.2065 3.38766 36.7588 2.93994 36.2065 2.93994C35.6543 2.93994 35.2065 3.38766 35.2065 3.93994C35.2065 4.49223 35.6543 4.93994 36.2065 4.93994Z" fill="#7ADEC9"/>
<path d="M36.2065 8.23999C36.7588 8.23999 37.2065 7.79228 37.2065 7.23999C37.2065 6.68771 36.7588 6.23999 36.2065 6.23999C35.6543 6.23999 35.2065 6.68771 35.2065 7.23999C35.2065 7.79228 35.6543 8.23999 36.2065 8.23999Z" fill="#7ADEC9"/>
<path d="M36.2065 2C36.7588 2 37.2065 1.55228 37.2065 1C37.2065 0.447715 36.7588 0 36.2065 0C35.6543 0 35.2065 0.447715 35.2065 1C35.2065 1.55228 35.6543 2 36.2065 2Z" fill="#7ADEC9"/>
<path d="M33.0864 6.58008C33.6387 6.58008 34.0864 6.13236 34.0864 5.58008C34.0864 5.02779 33.6387 4.58008 33.0864 4.58008C32.5341 4.58008 32.0864 5.02779 32.0864 5.58008C32.0864 6.13236 32.5341 6.58008 33.0864 6.58008Z" fill="#7ADEC9"/>
<path d="M33.0864 3.65991C33.6387 3.65991 34.0864 3.2122 34.0864 2.65991C34.0864 2.10763 33.6387 1.65991 33.0864 1.65991C32.5341 1.65991 32.0864 2.10763 32.0864 2.65991C32.0864 3.2122 32.5341 3.65991 33.0864 3.65991Z" fill="#7ADEC9"/>
</svg>
